HIERARCHY
ROOT root
{
	OFFSET 0.000000 0.000000 0.000000
	CHANNELS 6 Xposition Yposition Zposition Zrotation Yrotation Xrotation
	JOINT lhip
	{
		OFFSET 0.058581 -0.082280 -0.017664
		CHANNELS 3 Zrotation Yrotation Xrotation
		JOINT lknee
		{
			OFFSET 0.043451 -0.386469 0.008037
			CHANNELS 3 Zrotation Yrotation Xrotation
			JOINT lankle
			{
				OFFSET -0.014790 -0.426874 -0.037428
				CHANNELS 3 Zrotation Yrotation Xrotation
				JOINT ltoe
				{
					OFFSET 0.041054 -0.060286 0.122042
					CHANNELS 3 Zrotation Yrotation Xrotation
					End Site
					{
						OFFSET 0.000000 0.000000 0.000000
					}
				}
			}
		}
	}
	JOINT rhip
	{
		OFFSET -0.060310 -0.090513 -0.013543
		CHANNELS 3 Zrotation Yrotation Xrotation
		JOINT rknee
		{
			OFFSET -0.043257 -0.383688 -0.004843
			CHANNELS 3 Zrotation Yrotation Xrotation
			JOINT rankle
			{
				OFFSET 0.019056 -0.420046 -0.034562
				CHANNELS 3 Zrotation Yrotation Xrotation
				JOINT rtoe
				{
					OFFSET -0.034840 -0.062106 0.130323
					CHANNELS 3 Zrotation Yrotation Xrotation
					End Site
					{
						OFFSET 0.000000 0.000000 0.000000
					}
				}
			}
		}
	}
	JOINT lowerback
	{
		OFFSET 0.004439 0.124404 -0.038385
		CHANNELS 3 Zrotation Yrotation Xrotation
		JOINT upperback
		{
			OFFSET 0.004488 0.137956 0.026820
			CHANNELS 3 Zrotation Yrotation Xrotation
			JOINT chest
			{
				OFFSET -0.002265 0.056032 0.002855
				CHANNELS 3 Zrotation Yrotation Xrotation
				JOINT lowerneck
				{
					OFFSET -0.013390 0.211636 -0.033468
					CHANNELS 3 Zrotation Yrotation Xrotation
					JOINT upperneck
					{
						OFFSET 0.010113 0.088937 0.050410
						CHANNELS 3 Zrotation Yrotation Xrotation
						End Site
						{
							OFFSET 0.000000 0.000000 0.000000
						}
					}
				}
				JOINT lclavicle
				{
					OFFSET 0.071702 0.114000 -0.018898
					CHANNELS 3 Zrotation Yrotation Xrotation
					JOINT lshoulder
					{
						OFFSET 0.122921 0.045205 -0.019046
						CHANNELS 3 Zrotation Yrotation Xrotation
						JOINT lelbow
						{
							OFFSET 0.255332 -0.015649 -0.022946
							CHANNELS 3 Zrotation Yrotation Xrotation
							JOINT lwrist
							{
								OFFSET 0.265709 0.012698 -0.007375
								CHANNELS 3 Zrotation Yrotation Xrotation
								End Site
								{
									OFFSET 0.000000 0.000000 0.000000
								}
							}
						}
					}
				}
				JOINT rclavicle
				{
					OFFSET -0.082954 0.112472 -0.023707
					CHANNELS 3 Zrotation Yrotation Xrotation
					JOINT rshoulder
					{
						OFFSET -0.113228 0.046853 -0.008472
						CHANNELS 3 Zrotation Yrotation Xrotation
						JOINT relbow
						{
							OFFSET -0.260127 -0.014369 -0.031269
							CHANNELS 3 Zrotation Yrotation Xrotation
							JOINT rwrist
							{
								OFFSET -0.269108 0.006794 -0.006027
								CHANNELS 3 Zrotation Yrotation Xrotation
								End Site
								{
									OFFSET 0.000000 0.000000 0.000000
								}
							}
						}
					}
				}
			}
		}
	}
}
MOTION
Frames: 16
Frame Time: 0.033333
2.363826 0.606216 0.859497 -84.898064 2.077943 108.760335 1.154854 -3.015422 1.853522 -8.431066 -13.108910 43.812671 -7.787754 6.525384 5.605721 0.000000 -0.000000 0.000000 -3.643787 2.571866 -51.015050 -2.705865 -21.057298 62.597054 -1.799221 -6.956611 -31.607784 0.000000 -0.000000 0.000000 2.846678 -11.478945 33.773532 3.905379 1.477071 -6.351764 3.724526 -3.263664 -2.771096 -9.346467 8.006781 -24.675975 -0.929575 4.490499 -12.267404 -16.252900 -1.944383 1.499206 -58.141398 -6.329250 17.087065 -175.492705 -67.882487 -151.176012 9.312928 -18.274544 -27.852715 18.446386 -2.928032 5.220562 56.928548 -18.444908 5.515340 -29.546380 67.634902 -9.880727 -3.173283 14.705592 -8.645285 
2.284425 0.600737 0.863114 -88.679858 2.797720 107.758671 1.703739 -2.354165 -10.833866 -7.963890 -3.974461 62.121054 -3.213913 5.814290 -4.298652 0.000000 -0.000000 0.000000 -1.550814 4.507177 -44.174290 -1.830379 -17.318183 61.701282 -1.339820 -6.617318 -33.706110 0.000000 -0.000000 0.000000 3.298856 -6.654168 37.546449 4.108212 2.123517 -5.525166 3.252717 -1.490288 -3.522396 -9.648338 7.416150 -27.537704 -3.128973 2.387947 -12.482480 -21.198120 -3.102240 1.861091 -55.756197 -0.181575 15.771485 151.836679 -86.479028 -121.943518 13.266243 -16.760177 -25.115762 24.572286 3.080711 4.057912 54.808364 -11.162626 7.379197 -39.910603 61.154808 -21.818051 -4.489707 13.100158 -7.845670 
2.201629 0.595974 0.859687 -92.602041 3.041743 106.729191 4.030262 -2.107434 -24.614070 -6.900070 3.772041 76.051344 -0.460873 5.343799 -13.960765 0.000000 -0.000000 0.000000 0.157533 4.808016 -36.261176 0.683307 -11.757424 59.154101 -0.952006 -6.876879 -36.216035 0.000000 -0.000000 0.000000 3.399691 -2.047666 38.999471 3.595505 2.678934 -4.334672 2.768214 0.473679 -3.514942 -9.777308 6.626196 -29.734596 -4.586775 0.785217 -11.076687 -24.275692 -4.126721 1.457915 -54.348503 4.162144 12.391292 12.741841 -69.719897 9.923160 14.128838 -16.217963 -21.288176 28.038754 9.532248 4.459988 51.219753 -2.863893 9.431999 -44.008494 57.634558 -27.787181 -5.286410 13.776764 -6.851951 
2.090868 0.589795 0.850423 -98.753944 2.591207 105.066800 7.982484 0.770841 -42.107376 -4.752929 10.997598 85.200328 1.516179 4.552048 -22.253681 0.000000 -0.000000 0.000000 0.554939 2.708554 -24.622028 2.565486 -3.415331 55.110351 -0.461317 -5.799440 -40.032047 0.000000 -0.000000 0.000000 2.792834 4.015481 39.428391 1.487739 2.771784 -4.324663 1.662404 2.807697 -3.149883 -9.089024 6.089308 -28.622066 -4.324310 -0.214326 -10.996386 -22.948023 -3.303477 1.875224 -48.672465 14.634743 5.706837 -6.649621 -54.555322 25.404797 7.801680 -18.562048 -12.331067 23.029824 14.910371 3.180400 54.374171 5.309473 9.690122 -57.758491 66.014792 -39.007537 -2.303951 15.211639 -6.291277 
2.019172 0.585267 0.843458 -102.829700 1.653583 104.012410 9.913590 3.611467 -51.252121 -4.665823 14.019946 84.250593 2.676552 4.538319 -24.407145 0.000000 -0.000000 0.000000 -1.451273 0.588490 -17.312213 3.353609 2.160646 52.262823 0.355909 -4.196731 -41.457892 0.000000 -0.000000 0.000000 1.789029 7.681800 38.600726 -0.473346 2.718086 -4.124284 0.393025 4.509407 -2.808831 -7.875537 5.505549 -26.397808 -3.048633 -0.950991 -12.516041 -19.090976 -1.787593 3.059124 -42.280535 23.984176 5.642577 -25.178326 -55.123852 46.369055 7.408452 -19.754203 -8.517702 15.611909 16.496879 0.807969 61.255211 8.657388 9.892276 -85.587471 71.642389 -65.244905 -1.340707 15.637883 -7.665866 
1.914309 0.578173 0.836903 -106.088579 -0.241347 103.260554 11.787864 5.862951 -60.386983 -6.107646 16.308403 73.908339 3.573414 3.981671 -24.158866 0.000000 -0.000000 0.000000 -6.671922 -2.956621 -7.508195 4.029929 8.781421 46.988567 3.438188 -0.437790 -39.087221 0.000000 -0.000000 0.000000 0.477956 13.032702 35.248635 -2.245784 2.232002 -2.173519 -0.704568 6.538587 -2.735795 -6.719967 3.105738 -21.301971 -0.442845 -2.352207 -16.291335 -11.291793 -0.101243 5.629828 -36.270643 33.602715 8.786048 -50.137954 -54.560062 71.699674 11.789855 -21.145023 -12.008695 4.442559 16.937737 -2.032994 68.662307 10.470287 9.773100 -132.424570 67.251635 -110.401186 -1.003230 16.211406 -7.355964 
1.797172 0.568828 0.837776 -105.469477 -1.853635 102.875108 13.359270 4.380615 -64.155722 -7.712197 16.345351 55.009799 1.798009 3.431944 -18.724909 0.000000 -0.000000 0.000000 -12.472011 -5.944565 3.104963 3.352115 13.014636 39.322653 10.769200 5.304219 -26.154305 0.000000 -0.000000 0.000000 -0.258104 17.901250 30.977150 -2.329027 1.088984 0.935076 -0.312219 7.046721 -3.348682 -6.905141 -0.413756 -14.883715 2.282980 -2.567426 -20.789645 -4.169412 1.636079 8.978004 -37.402177 40.667322 8.646965 -65.569981 -55.106853 86.624084 14.920981 -22.203267 -20.201372 -3.367718 15.591434 -3.245662 70.473477 9.603254 8.112481 -153.113984 57.100632 -129.575598 -0.529504 17.006621 -6.452673 
1.670212 0.557506 0.844201 -103.448049 -2.068086 102.027069 13.944386 1.626670 -62.135983 -7.439925 15.638452 35.860814 -1.854580 4.397057 -10.982189 0.000000 -0.000000 0.000000 -15.473537 -7.145284 12.240554 0.148541 16.296691 31.728864 19.712851 9.538104 -1.540933 0.000000 -0.000000 0.000000 -0.563222 20.720185 27.531439 -2.118703 0.724851 2.786044 0.783200 6.618291 -3.470173 -7.602536 -3.150526 -9.861130 4.202720 -1.858408 -23.579125 -1.435367 5.272895 11.244705 -43.466436 44.534461 4.933704 -76.179493 -61.252757 99.245619 16.652421 -21.214816 -24.385080 -4.683247 11.889010 -3.191542 70.497927 7.599220 7.375102 -159.869553 54.322206 -135.841024 -0.915130 17.236807 -6.149361 
1.542607 0.546990 0.849376 -101.267066 -1.172120 101.599689 12.696505 -0.289206 -58.824895 -6.266750 16.188820 27.912887 -3.789738 5.083853 -6.021624 0.000000 -0.000000 0.000000 -12.983756 -5.220701 14.228326 -1.959177 17.270059 36.185668 19.150596 7.627074 3.875943 0.000000 -0.000000 0.000000 -1.462699 20.247099 24.217653 -1.820627 1.594663 2.568702 1.251909 6.171606 -2.877639 -7.112045 -3.697981 -9.086900 4.505137 -1.547655 -22.401279 -4.463074 9.650185 10.671001 -52.072264 42.305143 0.705762 -86.410617 -71.078531 111.915860 18.217597 -17.828735 -28.214742 0.860794 8.102861 -1.928070 70.498341 4.358509 8.458231 -155.425664 62.977076 -131.580886 -0.501077 15.722467 -6.066939 
1.393082 0.536928 0.856523 -96.060679 -1.891449 99.754543 8.846202 -4.162541 -55.951143 -6.882203 16.102210 36.711853 3.906791 4.769121 -5.728779 0.000000 -0.000000 0.000000 -9.532795 -2.552797 8.316705 -0.420595 10.897003 61.474897 12.091132 2.959191 -4.339363 0.000000 -0.000000 0.000000 -3.679073 15.843929 24.702530 -1.314214 1.521937 0.402537 1.105994 5.420264 -2.381620 -4.718892 -4.214227 -14.053360 3.590620 -0.403648 -18.036543 -15.606197 10.620907 5.749168 -57.643927 29.085967 3.038801 -104.811793 -83.688424 130.915023 18.693446 -13.703791 -33.971597 12.780918 6.639683 0.672516 68.039827 1.487773 9.718391 -86.000370 73.249461 -65.915695 0.043644 12.181907 -7.699154 
1.283915 0.530755 0.867825 -89.611830 -3.112700 97.010657 4.571753 -8.907874 -50.797528 -9.062664 12.720790 43.767930 10.362147 6.747555 -12.334449 0.000000 -0.000000 0.000000 -8.231247 -1.760035 -1.063907 2.657236 3.760107 86.812393 8.761185 0.767829 -9.674107 0.000000 -0.000000 0.000000 -4.415844 11.792344 27.581684 -0.695651 1.088960 -1.283857 0.158215 3.858032 -2.291413 -1.341965 -3.326234 -19.456141 2.410754 -1.895909 -12.491495 -23.919189 4.853448 0.348279 -54.006520 13.594671 12.444924 133.705767 -88.896810 -107.617389 19.978375 -12.655306 -33.867801 21.159793 7.352244 1.847678 63.814425 -0.564419 10.626626 -39.157063 53.353851 -28.133239 -3.911318 9.397752 -12.146021 
1.181394 0.525486 0.887585 -83.222985 -1.902684 94.922377 0.754838 -10.937621 -42.044202 -10.445860 6.251768 45.904795 12.808753 9.189492 -19.304485 0.000000 -0.000000 0.000000 -7.148622 -1.624247 -15.979842 2.786848 -3.317084 110.327533 7.481898 -0.821612 -16.001416 0.000000 -0.000000 0.000000 -2.957324 7.616364 29.686013 -0.136898 2.011901 -4.647403 -0.133358 1.796395 -1.473891 0.114973 -2.262746 -22.826950 2.449564 -4.378035 -6.962926 -24.210222 -1.947612 -2.360638 -54.121398 -0.744818 17.576224 139.601953 -85.291283 -111.210800 18.453991 -15.274271 -28.128153 23.466199 6.090256 2.758208 59.970477 -6.763456 8.287701 -23.371405 41.254195 -18.854925 -6.360064 9.275739 -13.063257 
1.083076 0.519986 0.919184 -76.749258 1.022744 93.644101 -0.662600 -10.028070 -31.158555 -11.677856 -2.539714 43.060765 13.233316 10.034915 -22.211199 0.000000 -0.000000 0.000000 -7.850299 -2.456118 -34.064418 1.473822 -8.333527 126.170557 5.094226 -1.460849 -20.895024 0.000000 -0.000000 0.000000 -1.448524 1.603902 30.278216 2.268555 2.164665 -7.507949 1.101854 -0.124890 -0.164342 -1.819010 -1.079115 -22.025845 2.715821 -4.004878 -7.942778 -16.958450 -3.460806 -2.827150 -61.325953 -11.615593 18.408908 159.221383 -74.517514 -128.700264 19.731919 -14.098938 -31.034772 19.110253 0.566701 3.314268 57.870242 -14.305561 6.530699 -21.332196 47.535882 -9.839995 -5.801971 11.742148 -11.978157 
0.982213 0.512563 0.967841 -72.424211 5.136507 91.502247 1.161702 -6.616936 -16.599571 -11.534664 -13.269878 34.288662 9.449963 10.416311 -19.142842 0.000000 -0.000000 0.000000 -9.824465 -2.868505 -49.396118 0.484147 -11.451965 130.407969 1.688920 -1.342255 -22.126278 0.000000 -0.000000 0.000000 0.259661 -6.125691 31.182533 4.647391 2.637568 -8.394192 2.541107 -0.855767 0.688716 -4.536008 0.571376 -17.556025 2.599397 -1.808294 -11.864182 -8.819889 -0.963483 -3.847000 -62.107135 -16.798672 16.465925 165.092512 -61.602899 -134.195816 23.042863 -14.072336 -40.945678 12.259019 -4.165633 3.688011 54.164534 -18.773570 5.216194 -21.336045 58.472666 -5.194146 -7.456560 13.605775 -16.495896 
0.879575 0.502269 1.032985 -71.467026 9.051655 88.731980 4.843952 -4.010519 -0.735864 -7.490970 -21.344898 21.429037 0.146547 11.267768 -7.653203 0.000000 -0.000000 0.000000 -12.670215 -1.622431 -59.002252 -1.867891 -13.254850 125.340407 0.989585 -2.182450 -24.452405 0.000000 -0.000000 0.000000 1.835909 -13.365554 30.857594 5.500762 5.107139 -5.058905 2.622621 0.374281 -0.081245 -5.786766 2.213249 -12.103456 2.561384 -1.637587 -13.844929 -3.031450 0.975695 -4.898488 -56.956016 -17.714210 11.984204 163.250721 -58.354229 -130.757171 21.524725 -17.817999 -36.474832 6.693820 -5.026314 4.343193 50.022758 -21.212197 2.585385 -12.169680 64.015045 6.813338 -5.609233 16.297000 -14.417212 
0.780614 0.493942 1.109172 -71.514723 11.637417 86.833662 8.118026 -1.677626 8.917126 -2.871190 -21.786128 11.923305 -8.092869 13.742469 12.799642 0.000000 -0.000000 0.000000 -14.276162 -0.136893 -63.034680 -4.750896 -16.057544 114.167957 -0.712554 -4.915206 -25.216264 0.000000 -0.000000 0.000000 4.157088 -15.679920 29.227221 4.950570 5.946116 -1.769585 3.449582 0.721579 -1.318106 -7.010088 1.432359 -4.163757 3.115815 -1.464271 -16.911926 -0.301235 -0.536941 -4.206944 -53.153299 -15.288565 10.557079 156.366273 -66.141663 -125.568702 16.835277 -16.981547 -29.086421 3.310366 -1.462510 6.532831 48.149264 -21.378510 0.444267 -0.708152 61.432343 18.525234 -2.880485 16.848281 -7.776607 
